<?xml version="1.0" standalone="no"?>
<!DOCTYPE svg PUBLIC "-//W3C//DTD SVG 20010904//EN"
 "http://www.w3.org/TR/2001/REC-SVG-20010904/DTD/svg10.dtd">
<svg version="1.0" xmlns="http://www.w3.org/2000/svg"
 width="260.000000pt" height="260.000000pt" viewBox="0 0 260.000000 260.000000"
 preserveAspectRatio="xMidYMid meet">
<metadata>
Created by potrace 1.14, written by Peter Selinger 2001-2017
</metadata>
<g transform="translate(0.000000,260.000000) scale(0.100000,-0.100000)"
fill="#000000" stroke="none">
<path d="M0 1300 l0 -1300 1300 0 1300 0 0 1300 0 1300 -1300 0 -1300 0 0
-1300z m781 1101 l29 -29 0 -262 0 -262 -29 -29 -29 -29 -262 0 -262 0 -29 29
-29 29 0 262 0 262 29 29 29 29 262 0 262 0 29 -29z m807 -11 l42 -40 0 -240
0 -240 -42 -40 -43 -40 -241 0 -241 0 -36 37 -37 36 0 247 0 247 37 36 36 37
241 0 241 0 43 -40z m815 3 l37 -36 0 -247 0 -247 -37 -36 -36 -37 -247 0
-247 0 -36 37 -37 36 0 247 0 247 37 36 36 37 247 0 247 0 36 -37z m-1622
-812 l29 -29 0 -257 0 -257 -29 -29 -29 -29 -262 0 -262 0 -29 29 -29 29 0
257 0 257 29 29 29 29 262 0 262 0 29 -29z m807 -11 l42 -40 0 -235 0 -235
-42 -40 -43 -40 -241 0 -241 0 -36 37 -37 36 0 242 0 242 37 36 36 37 241 0
241 0 43 -40z m823 11 l29 -29 0 -257 0 -257 -29 -29 -29 -29 -262 0 -262 0
-29 29 -29 29 0 257 0 257 29 29 29 29 262 0 262 0 29 -29z m-1638 -818 l37
-36 0 -247 0 -247 -37 -36 -36 -37 -247 0 -247 0 -36 37 -37 36 0 247 0 247
37 36 36 37 247 0 247 0 36 -37z m815 -3 l42 -40 0 -240 0 -240 -42 -40 -43
-40 -241 0 -241 0 -36 37 -37 36 0 247 0 247 37 36 36 37 241 0 241 0 43 -40z
m823 11 l29 -29 0 -262 0 -262 -29 -29 -29 -29 -262 0 -262 0 -29 29 -29 29 0
262 0 262 29 29 29 29 262 0 262 0 29 -29z"/>
</g>
</svg>
